# xmcd
#
# Track frame offsets:
#  150
#  22138
#  41747
#  64510
#  82455
#  93466
#  124599
#  142548
#  167304
#  178156
#  200872
#  230886
#  259192
#  272920
#
# Disc length: 3991 seconds
#
# Revision: 0
# Processed by: cddbd v1.5.2PL0 Copyright (c) Steve Scherf et al.
# Submitted via: AltoMP3_Maker 3.0
#
DISCID=ce0f950e
DTITLE=Wale Liniger - Sessions
DYEAR=1900
DGENRE=
TTITLE0=I Wanna Know
TTITLE1=Bad Luck Man
TTITLE2=Quicksand
TTITLE3=Mind Your Own Business
TTITLE4=Intersections
TTITLE5=In The Evening
TTITLE6=Shadows In My Mind
TTITLE7=Move Across The Deep Blue Sea
TTITLE8=Etta's Dance
TTITLE9=Things Have Changed
TTITLE10=Casablanca Tango
TTITLE11=Broken Hearted Blues
TTITLE12=Good-Bye Booze
TTITLE13=9 Below Zero - Walk All Night Long
EXTD=
EXTT0=
EXTT1=
EXTT2=
EXTT3=
EXTT4=
EXTT5=
EXTT6=
EXTT7=
EXTT8=
EXTT9=
EXTT10=
EXTT11=
EXTT12=
EXTT13=
PLAYORDER=
